# xmcd
#
# Track frame offsets: 
#        183
#        16808
#        32838
#
# Disc length: 746 seconds
#
# Revision: 9
# Processed by: cddbd v1.5.2PL0 Copyright (c) Steve Scherf et al.
# Submitted via: ExactAudioCopy v1.0b3
#
DISCID=1802e803
DTITLE=Hans Hartz - Sail Away
DYEAR=1991
DGENRE=Rock
TTITLE0=Sail Away
TTITLE1=Sail Away (dt. Version)
TTITLE2=Sail Away (Long-Mix-Version)
EXTD=
EXTT0=
EXTT1=
EXTT2=
PLAYORDER=
